Coordinates
version=1
nRows=17
nColumns=24
inDegrees=yes

Units are S.I. units (second, meters, Newtons, ...)
Angles are in degrees.

endheader
time	pelvis_tilt	pelvis_list	pelvis_rotation	pelvis_tx	pelvis_ty	pelvis_tz	hip_flexion_r	hip_adduction_r	hip_rotation_r	knee_angle_r	ankle_angle_r	subtalar_angle_r	mtp_angle_r	hip_flexion_l	hip_adduction_l	hip_rotation_l	knee_angle_l	ankle_angle_l	subtalar_angle_l	mtp_angle_l	lumbar_extension	lumbar_bending	lumbar_rotation
      1.42483333	      2.03305952	      9.70569017	     -4.71791292	      0.30584278	      1.00866877	      0.31326162	     16.52655422	    -12.42539731	      1.50216429	    -74.94037055	    -10.21821602	    -10.89047809	      8.43468461	      5.36928517	     15.03328278	      3.14677878	     -9.70139354	      1.70253106	    -18.20918894	     -2.54132761	    -14.33550814	     -5.36604669	     -2.36120572
      1.42900000	      2.04260932	      9.53140370	     -4.63460342	      0.31066083	      1.00957875	      0.31283584	     17.06542543	    -12.18593791	      1.38404629	    -74.70025564	     -9.62747602	    -11.14480867	      8.10040241	      4.76126787	     14.89636177	      3.40320836	     -9.18440224	      1.62846977	    -18.27683027	     -2.53813063	    -14.36029660	     -5.09339527	     -2.66236280
      1.43316667	      2.01629647	      9.32457031	     -4.55607714	      0.31548835	      1.01040415	      0.31244632	     17.62158936	    -11.89598061	      1.27043784	    -74.39331158	     -9.02722759	    -11.36862957	      8.04482760	      4.22120343	     14.70933341	      3.54253965	     -8.73704626	      1.68775048	    -18.16853981	     -2.53558006	    -14.34017082	     -4.81452076	     -2.72104887
      1.43733333	      2.05720192	      9.10242446	     -4.46179159	      0.32032227	      1.01132786	      0.31202421	     18.06644950	    -11.60192026	      1.12766338	    -73.99715839	     -8.46093220	    -11.56899556	      7.88279876	      3.58087522	     14.51494247	      3.77731758	     -8.24205359	      1.72491556	    -18.12684593	     -2.53351520	    -14.41273931	     -4.46479434	     -3.03744160
      1.44150000	      2.07928423	      8.90694337	     -4.36562724	      0.32514473	      1.01215258	      0.31161012	     18.52901906	    -11.33851175	      0.98362661	    -73.56474646	     -7.83742764	    -11.76150023	      7.69730505	      2.97151964	     14.34218288	      3.97910054	     -7.75607044	      1.73016329	    -18.08093417	     -2.53301485	    -14.44936180	     -4.16772008	     -3.28246500
      1.44566667	      2.08854785	      8.70015499	     -4.26438703	      0.32998069	      1.01293171	      0.31119837	     18.98253699	    -11.06046012	      0.83399747	    -73.06778621	     -7.22011891	    -11.95171792	      7.50719936	      2.38089103	     14.15232933	      4.16517042	     -7.28367133	      1.75303212	    -18.00956841	     -2.53291630	    -14.47808593	     -3.85983532	     -3.49787677
      1.44983333	      2.10420253	      8.51742896	     -4.15875068	      0.33480323	      1.01364522	      0.31078061	     19.42155156	    -10.81445782	      0.67788021	    -72.53062476	     -6.55971077	    -12.13964089	      7.17527844	      1.78883357	     13.98572166	      4.35174953	     -6.81347038	      1.74177880	    -17.93796341	     -2.53426170	    -14.51671907	     -3.57539649	     -3.77514883
      1.45400000	      2.07585775	      8.30225195	     -4.05953029	      0.33963572	      1.01428738	      0.31039630	     19.88386369	    -10.51452297	      0.54151685	    -71.91711361	     -5.94328345	    -12.26423681	      7.03797083	      1.25734047	     13.77566524	      4.49134717	     -6.37517757	      1.81602680	    -17.82213538	     -2.53317054	    -14.49745178	     -3.27839448	     -3.86995659
      1.45816667	      2.12076192	      8.12402004	     -3.95117964	      0.34446901	      1.01495958	      0.30999883	     20.25341202	    -10.27900373	      0.37716944	    -71.26236808	     -5.26946629	    -12.41924626	      6.76228452	      0.64144665	     13.60671645	      4.64338822	     -5.91616824	      1.82648678	    -17.70089108	     -2.53433668	    -14.56535722	     -3.00708731	     -4.13613564
      1.46233333	      2.11926584	      7.93096669	     -3.84229248	      0.34930392	      1.01551933	      0.30961473	     20.65623763	    -10.01688968	      0.22243697	    -70.55102484	     -4.61343893	    -12.52688164	      6.41887288	      0.08652945	     13.41609666	      4.78518831	     -5.48098504	      1.87585125	    -17.57812263	     -2.53479704	    -14.57662811	     -2.71713068	     -4.34566254
      1.46650000	      2.13245132	      7.75540943	     -3.74704984	      0.35414099	      1.01603769	      0.30925427	     21.03532862	     -9.77243359	      0.08490297	    -69.79365061	     -3.95972926	    -12.60787942	      6.14370137	     -0.47908447	     13.24176624	      4.91261596	     -5.04881033	      1.93115003	    -17.44206790	     -2.53512623	    -14.60646474	     -2.46536453	     -4.49162235
      1.47066667	      2.12722518	      7.57017565	     -3.65220448	      0.35899397	      1.01649545	      0.30889886	     21.41362896	     -9.51501553	     -0.04950016	    -68.97469212	     -3.33965309	    -12.67216630	      5.96305248	     -1.02101639	     13.05338579	      5.02961785	     -4.62517858	      2.00959879	    -17.30601578	     -2.53348266	    -14.60117079	     -2.18984014	     -4.62153291
      1.47483333	      2.09156547	      7.38821345	     -3.54514590	      0.36383380	      1.01685901	      0.30855291	     21.80754473	     -9.25810357	     -0.18943313	    -68.10765906	     -2.69147504	    -12.75013499	      5.87802686	     -1.50674344	     12.86361370	      5.11883495	     -4.24451259	      2.05721275	    -17.17316779	     -2.53183579	    -14.56946474	     -1.94584704	     -4.70721977
      1.47900000	      2.12257670	      7.23432329	     -3.45818632	      0.36868958	      1.01722578	      0.30821356	     22.12515400	     -9.04311760	     -0.31470391	    -67.20575962	     -2.07224960	    -12.76096645	      5.72472483	     -2.08439201	     12.70703301	      5.24372237	     -3.81562387	      2.14071403	    -17.02407729	     -2.52826490	    -14.61304058	     -1.69733646	     -4.91352209
      1.48316667	      2.13433193	      7.07938332	     -3.36450867	      0.37353632	      1.01753283	      0.30789364	     22.44281367	     -8.82265038	     -0.43954993	    -66.24542911	     -1.46314172	    -12.78443034	      5.57788455	     -2.62406698	     12.54483363	      5.35394049	     -3.41999747	      2.20398758	    -16.89414557	     -2.52538236	    -14.63369656	     -1.46860844	     -5.06176971
      1.48733333	      2.13734379	      6.93998059	     -3.27196083	      0.37838400	      1.01775802	      0.30757707	     22.75993041	     -8.61921921	     -0.55449542	    -65.24702042	     -0.86830903	    -12.79257815	      5.41557649	     -3.14757465	     12.39711818	      5.46528398	     -3.03279083	      2.26793350	    -16.76867580	     -2.52249094	    -14.64630929	     -1.25960475	     -5.21729998
      1.49150000	      2.11492048	      6.79453512	     -3.17506885	      0.38323312	      1.01791823	      0.30728621	     23.08143178	     -8.40336297	     -0.66653757	    -64.19001948	     -0.29403911	    -12.81791546	      5.33489533	     -3.62247989	     12.23860855	      5.55540616	     -2.68834107	      2.31973322	    -16.65128944	     -2.52004784	    -14.63020502	     -1.06061920	     -5.29382372
